<svg id="Layer_1" data-name="Layer 1" xmlns="http://www.w3.org/2000/svg" viewBox="0 0 16.88 20.05"><defs><style>.cls-1{fill:#fefefe;}</style></defs><title>download</title><g id="u5DPJQ.tif"><path class="cls-1" d="M7.08,11.59q0-.3,0-0.6,0-4.72,0-9.45a1.36,1.36,0,1,1,2.7-.15c0,1.78,0,3.56,0,5.33,0,1.62,0,3.25,0,4.93a3.38,3.38,0,0,0,.88-0.72c1.1-1.08,2.19-2.17,3.28-3.26a1.63,1.63,0,0,1,2.41-.24,1.63,1.63,0,0,1-.21,2.42L9.57,16.35a1.5,1.5,0,0,1-2.29,0l-6-5.89C1.08,10.2.83,10,.59,9.73A1.61,1.61,0,0,1,.51,7.45a1.56,1.56,0,0,1,2.23,0C4,8.74,5.29,10,6.56,11.28a2.59,2.59,0,0,1,.3.46Z" transform="translate(0)"/><path class="cls-1" d="M8.41,20H1.35a1.3,1.3,0,0,1-1.3-.94A1.35,1.35,0,0,1,.6,17.59a1.33,1.33,0,0,1,.77-0.21H15.52a1.3,1.3,0,0,1,1.36,1.33A1.32,1.32,0,0,1,15.51,20H8.41Z" transform="translate(0)"/></g></svg>